<svg width="25" height="22" viewBox="0 0 25 22" fill="none" xmlns="http://www.w3.org/2000/svg">
<path d="M7.48906 2.0375L7.00156 3.5H3.5C1.84531 3.5 0.5 4.84531 0.5 6.5V18.5C0.5 20.1547 1.84531 21.5 3.5 21.5H21.5C23.1547 21.5 24.5 20.1547 24.5 18.5V6.5C24.5 4.84531 23.1547 3.5 21.5 3.5H17.9984L17.5109 2.0375C17.2062 1.11875 16.3484 0.5 15.3781 0.5H9.62188C8.65156 0.5 7.79375 1.11875 7.48906 2.0375ZM12.5 8C13.6935 8 14.8381 8.47411 15.682 9.31802C16.5259 10.1619 17 11.3065 17 12.5C17 13.6935 16.5259 14.8381 15.682 15.682C14.8381 16.5259 13.6935 17 12.5 17C11.3065 17 10.1619 16.5259 9.31802 15.682C8.47411 14.8381 8 13.6935 8 12.5C8 11.3065 8.47411 10.1619 9.31802 9.31802C10.1619 8.47411 11.3065 8 12.5 8Z" fill="white"/>
</svg>
