<svg width="31" height="24" viewBox="0 0 31 24" fill="none" xmlns="http://www.w3.org/2000/svg">
<path d="M10.25 16.5C15.636 16.5 20 12.8062 20 8.25C20 3.69375 15.636 0 10.25 0C4.86409 0 0.500025 3.69375 0.500025 8.25C0.500025 10.0594 1.18909 11.7328 2.35627 13.0969C2.19221 13.5375 1.94846 13.9266 1.69065 14.2547C1.46565 14.5453 1.23596 14.7703 1.06721 14.925C0.982837 15 0.912525 15.0609 0.86565 15.0984C0.842212 15.1172 0.823462 15.1312 0.814087 15.1359L0.804712 15.1453C0.5469 15.3375 0.4344 15.675 0.537525 15.9797C0.64065 16.2844 0.926587 16.5 1.25002 16.5C2.2719 16.5 3.30315 16.2375 4.16096 15.9141C4.59221 15.75 4.99534 15.5672 5.3469 15.3797C6.78596 16.0922 8.4594 16.5 10.25 16.5ZM21.5 8.25C21.5 13.5141 16.8547 17.4797 11.3516 17.9531C12.4907 21.4406 16.2688 24 20.75 24C22.5407 24 24.2141 23.5922 25.6578 22.8797C26.0094 23.0672 26.4078 23.25 26.8391 23.4141C27.6969 23.7375 28.7282 24 29.75 24C30.0735 24 30.3641 23.7891 30.4625 23.4797C30.561 23.1703 30.4532 22.8328 30.1907 22.6406L30.1813 22.6312C30.1719 22.6219 30.1532 22.6125 30.1297 22.5938C30.0828 22.5562 30.0125 22.5 29.9282 22.4203C29.7594 22.2656 29.5297 22.0406 29.3047 21.75C29.0469 21.4219 28.8032 21.0281 28.6391 20.5922C29.8063 19.2328 30.4953 17.5594 30.4953 15.7453C30.4953 11.3953 26.5157 7.82812 21.4672 7.51875C21.486 7.75781 21.4953 8.00156 21.4953 8.24531L21.5 8.25Z" fill="white"/>
</svg>
